<mxfile host="www.draw.io" modified="2020-01-02T20:17:36.982Z" agent="Mozilla/5.0 (Windows NT 10.0; Win64; x64) AppleWebKit/537.36 (KHTML, like Gecko) Chrome/79.0.3945.88 Safari/537.36" etag="x5W_JaO0Wnd9xhAUfYVs" version="12.4.8" type="github">
  <diagram id="fOUC8nEDNx44IwbjKgjw" name="Page-1">
    <mxGraphModel dx="1024" dy="566" grid="1" gridSize="10" guides="1" tooltips="1" connect="1" arrows="1" fold="1" page="1" pageScale="1" pageWidth="827" pageHeight="1169" math="0" shadow="0">
      <root>
        <mxCell id="0"/>
        <mxCell id="1" parent="0"/>
        <mxCell id="WX-wjhO8AtWecEBTtA40-1" value="&lt;br&gt;&lt;br&gt;&lt;br&gt;&lt;br&gt;&lt;b&gt;&lt;font style=&quot;font-size: 16px&quot;&gt;User&lt;br&gt;&lt;/font&gt;&lt;/b&gt;(Person)&lt;br&gt;The user of the application that has an account on the site" style="shape=actor;whiteSpace=wrap;html=1;" parent="1" vertex="1">
          <mxGeometry x="170" y="10" width="130" height="190" as="geometry"/>
        </mxCell>
        <mxCell id="WX-wjhO8AtWecEBTtA40-4" value="&lt;font style=&quot;font-size: 11px&quot;&gt;&lt;b&gt;Single Page Application&lt;br&gt;(&lt;/b&gt;Software System)&lt;br&gt;Provides all the functionality needed in order to view, rent ,extend or return a rented game.&lt;br&gt;&lt;br&gt;&lt;/font&gt;" style="rounded=0;whiteSpace=wrap;html=1;" parent="1" vertex="1">
          <mxGeometry x="130" y="300" width="225" height="170" as="geometry"/>
        </mxCell>
        <mxCell id="WX-wjhO8AtWecEBTtA40-6" value="&lt;b&gt;&lt;font style=&quot;font-size: 16px&quot;&gt;Rent operations service&lt;br&gt;&lt;/font&gt;&lt;/b&gt;&lt;span style=&quot;font-size: 11px&quot;&gt;(Software System)&lt;/span&gt;&lt;br&gt;&lt;span style=&quot;font-size: 11px&quot;&gt;Calculates the payment and expiring dates when a rent is made or updated.&lt;/span&gt;" style="rounded=0;whiteSpace=wrap;html=1;" parent="1" vertex="1">
          <mxGeometry x="640" y="360" width="210" height="120" as="geometry"/>
        </mxCell>
        <mxCell id="WX-wjhO8AtWecEBTtA40-7" value="&lt;font&gt;&lt;b&gt;&lt;font style=&quot;font-size: 16px&quot;&gt;Database&lt;/font&gt;&lt;br&gt;&lt;/b&gt;&lt;span style=&quot;font-size: 11px&quot;&gt;(Software System)&lt;/span&gt;&lt;br&gt;&lt;span style=&quot;font-size: 11px&quot;&gt;Stores all the data about users,games and also the rent that they make.&lt;/span&gt;&lt;br&gt;&lt;/font&gt;" style="rounded=0;whiteSpace=wrap;html=1;" parent="1" vertex="1">
          <mxGeometry x="130" y="570" width="240" height="160" as="geometry"/>
        </mxCell>
        <mxCell id="9mch2qk_Ejj1gXPEQ_sb-1" value="" style="endArrow=classic;html=1;entryX=0.471;entryY=-0.006;entryDx=0;entryDy=0;entryPerimeter=0;" parent="1" source="WX-wjhO8AtWecEBTtA40-1" target="WX-wjhO8AtWecEBTtA40-4" edge="1">
          <mxGeometry width="50" height="50" relative="1" as="geometry">
            <mxPoint x="200" y="260" as="sourcePoint"/>
            <mxPoint x="250" y="210" as="targetPoint"/>
          </mxGeometry>
        </mxCell>
        <mxCell id="9mch2qk_Ejj1gXPEQ_sb-2" value="Views games,rents and can&lt;br&gt;rent a new game, extend the period of a rented game or return it.." style="text;html=1;resizable=0;points=[];align=center;verticalAlign=middle;labelBackgroundColor=#ffffff;" parent="9mch2qk_Ejj1gXPEQ_sb-1" vertex="1" connectable="0">
          <mxGeometry x="-0.4543" y="1" relative="1" as="geometry">
            <mxPoint as="offset"/>
          </mxGeometry>
        </mxCell>
        <mxCell id="9mch2qk_Ejj1gXPEQ_sb-3" value="" style="endArrow=classic;html=1;exitX=0;exitY=0.5;exitDx=0;exitDy=0;entryX=1;entryY=0.5;entryDx=0;entryDy=0;" parent="1" source="WX-wjhO8AtWecEBTtA40-6" target="WX-wjhO8AtWecEBTtA40-4" edge="1">
          <mxGeometry width="50" height="50" relative="1" as="geometry">
            <mxPoint x="430" y="400" as="sourcePoint"/>
            <mxPoint x="480" y="350" as="targetPoint"/>
            <Array as="points">
              <mxPoint x="450" y="410"/>
            </Array>
          </mxGeometry>
        </mxCell>
        <mxCell id="9mch2qk_Ejj1gXPEQ_sb-6" value="Sends result back" style="text;html=1;resizable=0;points=[];align=center;verticalAlign=middle;labelBackgroundColor=#ffffff;" parent="9mch2qk_Ejj1gXPEQ_sb-3" vertex="1" connectable="0">
          <mxGeometry x="-0.1424" y="-1" relative="1" as="geometry">
            <mxPoint as="offset"/>
          </mxGeometry>
        </mxCell>
        <mxCell id="9mch2qk_Ejj1gXPEQ_sb-4" value="" style="endArrow=classic;html=1;entryX=0;entryY=0.25;entryDx=0;entryDy=0;exitX=1.009;exitY=0.294;exitDx=0;exitDy=0;exitPerimeter=0;" parent="1" source="WX-wjhO8AtWecEBTtA40-4" target="WX-wjhO8AtWecEBTtA40-6" edge="1">
          <mxGeometry width="50" height="50" relative="1" as="geometry">
            <mxPoint x="363" y="355" as="sourcePoint"/>
            <mxPoint x="413" y="305" as="targetPoint"/>
          </mxGeometry>
        </mxCell>
        <mxCell id="9mch2qk_Ejj1gXPEQ_sb-5" value="Sends rent for processing" style="text;html=1;resizable=0;points=[];align=center;verticalAlign=middle;labelBackgroundColor=#ffffff;" parent="9mch2qk_Ejj1gXPEQ_sb-4" vertex="1" connectable="0">
          <mxGeometry x="-0.1255" y="-1" relative="1" as="geometry">
            <mxPoint as="offset"/>
          </mxGeometry>
        </mxCell>
        <mxCell id="9mch2qk_Ejj1gXPEQ_sb-7" value="" style="endArrow=classic;html=1;exitX=0.5;exitY=1;exitDx=0;exitDy=0;entryX=0.5;entryY=0;entryDx=0;entryDy=0;" parent="1" source="WX-wjhO8AtWecEBTtA40-4" target="WX-wjhO8AtWecEBTtA40-7" edge="1">
          <mxGeometry width="50" height="50" relative="1" as="geometry">
            <mxPoint x="235" y="530" as="sourcePoint"/>
            <mxPoint x="285" y="480" as="targetPoint"/>
          </mxGeometry>
        </mxCell>
        <mxCell id="9mch2qk_Ejj1gXPEQ_sb-8" value="Get games and rent informations and&lt;br&gt;makes new Rents, creates new users" style="text;html=1;resizable=0;points=[];align=center;verticalAlign=middle;labelBackgroundColor=#ffffff;" parent="9mch2qk_Ejj1gXPEQ_sb-7" vertex="1" connectable="0">
          <mxGeometry x="-0.4548" y="3" relative="1" as="geometry">
            <mxPoint as="offset"/>
          </mxGeometry>
        </mxCell>
        <mxCell id="L7Q8qH5feU9ro_NC7iXD-1" value="" style="endArrow=none;dashed=1;html=1;" parent="1" edge="1">
          <mxGeometry width="50" height="50" relative="1" as="geometry">
            <mxPoint x="40" y="780" as="sourcePoint"/>
            <mxPoint x="40" y="270" as="targetPoint"/>
          </mxGeometry>
        </mxCell>
        <mxCell id="L7Q8qH5feU9ro_NC7iXD-5" value="" style="endArrow=none;dashed=1;html=1;" parent="1" edge="1">
          <mxGeometry width="50" height="50" relative="1" as="geometry">
            <mxPoint x="40" y="270" as="sourcePoint"/>
            <mxPoint x="470" y="270" as="targetPoint"/>
          </mxGeometry>
        </mxCell>
        <mxCell id="L7Q8qH5feU9ro_NC7iXD-6" value="" style="endArrow=none;dashed=1;html=1;" parent="1" edge="1">
          <mxGeometry width="50" height="50" relative="1" as="geometry">
            <mxPoint x="40" y="780" as="sourcePoint"/>
            <mxPoint x="470" y="780" as="targetPoint"/>
          </mxGeometry>
        </mxCell>
        <mxCell id="L7Q8qH5feU9ro_NC7iXD-7" value="" style="endArrow=none;dashed=1;html=1;" parent="1" edge="1">
          <mxGeometry width="50" height="50" relative="1" as="geometry">
            <mxPoint x="470" y="780" as="sourcePoint"/>
            <mxPoint x="470" y="270" as="targetPoint"/>
            <Array as="points">
              <mxPoint x="590" y="780"/>
              <mxPoint x="590" y="530"/>
              <mxPoint x="590" y="270"/>
            </Array>
          </mxGeometry>
        </mxCell>
        <mxCell id="L7Q8qH5feU9ro_NC7iXD-9" value="Game rent system&lt;br&gt;(Software system)&lt;br&gt;" style="text;html=1;strokeColor=none;fillColor=none;align=center;verticalAlign=middle;whiteSpace=wrap;rounded=0;" parent="1" vertex="1">
          <mxGeometry x="40" y="750" width="160" height="20" as="geometry"/>
        </mxCell>
      </root>
    </mxGraphModel>
  </diagram>
</mxfile>
